<mxfile host="app.diagrams.net" modified="2023-05-04T19:13:51.318Z" agent="Mozilla/5.0 (Macintosh; Intel Mac OS X 10_15_7) AppleWebKit/605.1.15 (KHTML, like Gecko) Version/16.4 Safari/605.1.15" etag="rT56g0R7JTWOH4qtNVlN" version="21.2.8" type="device">
  <diagram name="Page-1" id="V_YN9P2yqnFcR8cg9pQ4">
    <mxGraphModel dx="670" dy="856" grid="1" gridSize="10" guides="1" tooltips="1" connect="1" arrows="1" fold="1" page="1" pageScale="1" pageWidth="1169" pageHeight="827" math="0" shadow="0">
      <root>
        <mxCell id="0" />
        <mxCell id="1" parent="0" />
        <mxCell id="gNZihffF2-oShlzIyq49-1" value="User" style="swimlane;fontStyle=1;align=center;verticalAlign=top;childLayout=stackLayout;horizontal=1;startSize=26;horizontalStack=0;resizeParent=1;resizeParentMax=0;resizeLast=0;collapsible=1;marginBottom=0;whiteSpace=wrap;html=1;fillColor=#d5e8d4;strokeColor=#82b366;" parent="1" vertex="1">
          <mxGeometry x="130" y="40" width="480" height="210" as="geometry" />
        </mxCell>
        <mxCell id="gNZihffF2-oShlzIyq49-2" value="# id: String&lt;br&gt;# password: String" style="text;strokeColor=none;fillColor=none;align=left;verticalAlign=top;spacingLeft=4;spacingRight=4;overflow=hidden;rotatable=0;points=[[0,0.5],[1,0.5]];portConstraint=eastwest;whiteSpace=wrap;html=1;" parent="gNZihffF2-oShlzIyq49-1" vertex="1">
          <mxGeometry y="26" width="480" height="34" as="geometry" />
        </mxCell>
        <mxCell id="gNZihffF2-oShlzIyq49-3" value="" style="line;strokeWidth=1;fillColor=none;align=left;verticalAlign=middle;spacingTop=-1;spacingLeft=3;spacingRight=3;rotatable=0;labelPosition=right;points=[];portConstraint=eastwest;strokeColor=inherit;" parent="gNZihffF2-oShlzIyq49-1" vertex="1">
          <mxGeometry y="60" width="480" height="8" as="geometry" />
        </mxCell>
        <mxCell id="gNZihffF2-oShlzIyq49-4" value="+ signUp(String id, String pwd)&lt;br&gt;+ signIn(String id, String pwd): User&lt;br&gt;+ signOut()&lt;br&gt;+ getPerfAlgo()&lt;br&gt;+ produceStats()&lt;br&gt;+ produceStatsPeriod(Date day1, Date day2, Coordinates coord, double radius): double&lt;br&gt;+ produceStatsMoment(Date day, Coordinates coord, double radius): double&lt;br&gt;+ getId(): String&lt;br&gt;+ computeATMOIdx(Vector&amp;lt;Measure&amp;gt; listMeasures): int" style="text;strokeColor=none;fillColor=none;align=left;verticalAlign=top;spacingLeft=4;spacingRight=4;overflow=hidden;rotatable=0;points=[[0,0.5],[1,0.5]];portConstraint=eastwest;whiteSpace=wrap;html=1;" parent="gNZihffF2-oShlzIyq49-1" vertex="1">
          <mxGeometry y="68" width="480" height="142" as="geometry" />
        </mxCell>
        <mxCell id="gNZihffF2-oShlzIyq49-5" style="edgeStyle=orthogonalEdgeStyle;rounded=0;orthogonalLoop=1;jettySize=auto;html=1;exitX=0.5;exitY=0;exitDx=0;exitDy=0;endArrow=block;endFill=0;" parent="1" source="gNZihffF2-oShlzIyq49-6" edge="1">
          <mxGeometry relative="1" as="geometry">
            <mxPoint x="370.0588235294117" y="253" as="targetPoint" />
          </mxGeometry>
        </mxCell>
        <mxCell id="gNZihffF2-oShlzIyq49-6" value="Admin" style="swimlane;fontStyle=1;align=center;verticalAlign=top;childLayout=stackLayout;horizontal=1;startSize=26;horizontalStack=0;resizeParent=1;resizeParentMax=0;resizeLast=0;collapsible=1;marginBottom=0;whiteSpace=wrap;html=1;fillColor=#d5e8d4;strokeColor=#82b366;" parent="1" vertex="1">
          <mxGeometry x="265" y="303" width="210" height="70" as="geometry" />
        </mxCell>
        <mxCell id="gNZihffF2-oShlzIyq49-7" value="" style="line;strokeWidth=1;fillColor=none;align=left;verticalAlign=middle;spacingTop=-1;spacingLeft=3;spacingRight=3;rotatable=0;labelPosition=right;points=[];portConstraint=eastwest;strokeColor=inherit;" parent="gNZihffF2-oShlzIyq49-6" vertex="1">
          <mxGeometry y="26" width="210" height="8" as="geometry" />
        </mxCell>
        <mxCell id="gNZihffF2-oShlzIyq49-8" value="+ admin(String id, String password)&lt;br&gt;+ manageUserRights(String userId)" style="text;strokeColor=none;fillColor=none;align=left;verticalAlign=top;spacingLeft=4;spacingRight=4;overflow=hidden;rotatable=0;points=[[0,0.5],[1,0.5]];portConstraint=eastwest;whiteSpace=wrap;html=1;" parent="gNZihffF2-oShlzIyq49-6" vertex="1">
          <mxGeometry y="34" width="210" height="36" as="geometry" />
        </mxCell>
        <mxCell id="gNZihffF2-oShlzIyq49-9" style="edgeStyle=orthogonalEdgeStyle;rounded=0;orthogonalLoop=1;jettySize=auto;html=1;exitX=0.5;exitY=0;exitDx=0;exitDy=0;endArrow=block;endFill=0;targetPerimeterSpacing=0;strokeWidth=1;" parent="1" source="gNZihffF2-oShlzIyq49-10" edge="1">
          <mxGeometry relative="1" as="geometry">
            <mxPoint x="295" y="253" as="targetPoint" />
          </mxGeometry>
        </mxCell>
        <mxCell id="gNZihffF2-oShlzIyq49-10" value="PrivIndiv" style="swimlane;fontStyle=1;align=center;verticalAlign=top;childLayout=stackLayout;horizontal=1;startSize=26;horizontalStack=0;resizeParent=1;resizeParentMax=0;resizeLast=0;collapsible=1;marginBottom=0;whiteSpace=wrap;html=1;fillColor=#d5e8d4;strokeColor=#82b366;" parent="1" vertex="1">
          <mxGeometry x="15" y="303" width="230" height="150" as="geometry" />
        </mxCell>
        <mxCell id="gNZihffF2-oShlzIyq49-11" value="- providedSensors: Vector&amp;lt;Sensor&amp;gt;&lt;br&gt;- points: int" style="text;strokeColor=none;fillColor=none;align=left;verticalAlign=top;spacingLeft=4;spacingRight=4;overflow=hidden;rotatable=0;points=[[0,0.5],[1,0.5]];portConstraint=eastwest;whiteSpace=wrap;html=1;" parent="gNZihffF2-oShlzIyq49-10" vertex="1">
          <mxGeometry y="26" width="230" height="34" as="geometry" />
        </mxCell>
        <mxCell id="gNZihffF2-oShlzIyq49-12" value="" style="line;strokeWidth=1;fillColor=none;align=left;verticalAlign=middle;spacingTop=-1;spacingLeft=3;spacingRight=3;rotatable=0;labelPosition=right;points=[];portConstraint=eastwest;strokeColor=inherit;" parent="gNZihffF2-oShlzIyq49-10" vertex="1">
          <mxGeometry y="60" width="230" height="8" as="geometry" />
        </mxCell>
        <mxCell id="gNZihffF2-oShlzIyq49-13" value="+ privIndiv(String id, String password, Vector&amp;lt;Sensor&amp;gt; listSensors)&lt;br&gt;+ getProvidedSensors(): Vector&amp;lt;Sensor&amp;gt;&lt;br&gt;+ getPoints(): int&lt;br&gt;+ addOnePoint()" style="text;strokeColor=none;fillColor=none;align=left;verticalAlign=top;spacingLeft=4;spacingRight=4;overflow=hidden;rotatable=0;points=[[0,0.5],[1,0.5]];portConstraint=eastwest;whiteSpace=wrap;html=1;" parent="gNZihffF2-oShlzIyq49-10" vertex="1">
          <mxGeometry y="68" width="230" height="82" as="geometry" />
        </mxCell>
        <mxCell id="gNZihffF2-oShlzIyq49-14" style="edgeStyle=orthogonalEdgeStyle;rounded=0;orthogonalLoop=1;jettySize=auto;html=1;endArrow=block;endFill=0;" parent="1" source="gNZihffF2-oShlzIyq49-15" edge="1">
          <mxGeometry relative="1" as="geometry">
            <mxPoint x="435" y="253" as="targetPoint" />
            <Array as="points">
              <mxPoint x="615" y="273" />
              <mxPoint x="435" y="273" />
            </Array>
          </mxGeometry>
        </mxCell>
        <mxCell id="gNZihffF2-oShlzIyq49-15" value="SuperUser" style="swimlane;fontStyle=1;align=center;verticalAlign=top;childLayout=stackLayout;horizontal=1;startSize=26;horizontalStack=0;resizeParent=1;resizeParentMax=0;resizeLast=0;collapsible=1;marginBottom=0;whiteSpace=wrap;html=1;fillColor=#d5e8d4;strokeColor=#82b366;" parent="1" vertex="1">
          <mxGeometry x="505" y="290" width="220" height="100" as="geometry" />
        </mxCell>
        <mxCell id="gNZihffF2-oShlzIyq49-16" value="" style="line;strokeWidth=1;fillColor=none;align=left;verticalAlign=middle;spacingTop=-1;spacingLeft=3;spacingRight=3;rotatable=0;labelPosition=right;points=[];portConstraint=eastwest;strokeColor=inherit;" parent="gNZihffF2-oShlzIyq49-15" vertex="1">
          <mxGeometry y="26" width="220" height="8" as="geometry" />
        </mxCell>
        <mxCell id="gNZihffF2-oShlzIyq49-17" value="+ obsImpactAC()&lt;br&gt;+ obsImpactRadius(String id): double&lt;br&gt;+ obsImpactLvlImprov(String id, double radius): List&amp;lt;double&amp;gt;" style="text;strokeColor=none;fillColor=none;align=left;verticalAlign=top;spacingLeft=4;spacingRight=4;overflow=hidden;rotatable=0;points=[[0,0.5],[1,0.5]];portConstraint=eastwest;whiteSpace=wrap;html=1;" parent="gNZihffF2-oShlzIyq49-15" vertex="1">
          <mxGeometry y="34" width="220" height="66" as="geometry" />
        </mxCell>
        <mxCell id="gNZihffF2-oShlzIyq49-18" style="edgeStyle=orthogonalEdgeStyle;rounded=0;orthogonalLoop=1;jettySize=auto;html=1;endArrow=block;endFill=0;" parent="1" source="gNZihffF2-oShlzIyq49-19" edge="1">
          <mxGeometry relative="1" as="geometry">
            <mxPoint x="575" y="393" as="targetPoint" />
          </mxGeometry>
        </mxCell>
        <mxCell id="gNZihffF2-oShlzIyq49-19" value="MemberGov" style="swimlane;fontStyle=1;align=center;verticalAlign=top;childLayout=stackLayout;horizontal=1;startSize=26;horizontalStack=0;resizeParent=1;resizeParentMax=0;resizeLast=0;collapsible=1;marginBottom=0;whiteSpace=wrap;html=1;fillColor=#d5e8d4;strokeColor=#82b366;" parent="1" vertex="1">
          <mxGeometry x="385" y="438" width="241" height="90" as="geometry" />
        </mxCell>
        <mxCell id="gNZihffF2-oShlzIyq49-20" value="" style="line;strokeWidth=1;fillColor=none;align=left;verticalAlign=middle;spacingTop=-1;spacingLeft=3;spacingRight=3;rotatable=0;labelPosition=right;points=[];portConstraint=eastwest;strokeColor=inherit;" parent="gNZihffF2-oShlzIyq49-19" vertex="1">
          <mxGeometry y="26" width="241" height="8" as="geometry" />
        </mxCell>
        <mxCell id="gNZihffF2-oShlzIyq49-21" value="+ memberGov(String id, String password)&lt;br&gt;+ analysePIndSensor()&lt;br&gt;+ analysePIndSensor(String sensorId)" style="text;strokeColor=none;fillColor=none;align=left;verticalAlign=top;spacingLeft=4;spacingRight=4;overflow=hidden;rotatable=0;points=[[0,0.5],[1,0.5]];portConstraint=eastwest;whiteSpace=wrap;html=1;" parent="gNZihffF2-oShlzIyq49-19" vertex="1">
          <mxGeometry y="34" width="241" height="56" as="geometry" />
        </mxCell>
        <mxCell id="gNZihffF2-oShlzIyq49-22" style="edgeStyle=orthogonalEdgeStyle;rounded=0;orthogonalLoop=1;jettySize=auto;html=1;endArrow=block;endFill=0;" parent="1" source="gNZihffF2-oShlzIyq49-23" edge="1">
          <mxGeometry relative="1" as="geometry">
            <mxPoint x="645" y="393" as="targetPoint" />
            <Array as="points">
              <mxPoint x="765" y="413" />
              <mxPoint x="645" y="413" />
            </Array>
          </mxGeometry>
        </mxCell>
        <mxCell id="gNZihffF2-oShlzIyq49-23" value="Provider" style="swimlane;fontStyle=1;align=center;verticalAlign=top;childLayout=stackLayout;horizontal=1;startSize=26;horizontalStack=0;resizeParent=1;resizeParentMax=0;resizeLast=0;collapsible=1;marginBottom=0;whiteSpace=wrap;html=1;fillColor=#d5e8d4;strokeColor=#82b366;" parent="1" vertex="1">
          <mxGeometry x="665" y="438" width="200" height="100" as="geometry" />
        </mxCell>
        <mxCell id="gNZihffF2-oShlzIyq49-24" value="- providedAC: Vector&amp;lt;AirCleaner&amp;gt;" style="text;strokeColor=none;fillColor=none;align=left;verticalAlign=top;spacingLeft=4;spacingRight=4;overflow=hidden;rotatable=0;points=[[0,0.5],[1,0.5]];portConstraint=eastwest;whiteSpace=wrap;html=1;" parent="gNZihffF2-oShlzIyq49-23" vertex="1">
          <mxGeometry y="26" width="200" height="24" as="geometry" />
        </mxCell>
        <mxCell id="gNZihffF2-oShlzIyq49-25" value="" style="line;strokeWidth=1;fillColor=none;align=left;verticalAlign=middle;spacingTop=-1;spacingLeft=3;spacingRight=3;rotatable=0;labelPosition=right;points=[];portConstraint=eastwest;strokeColor=inherit;" parent="gNZihffF2-oShlzIyq49-23" vertex="1">
          <mxGeometry y="50" width="200" height="8" as="geometry" />
        </mxCell>
        <mxCell id="gNZihffF2-oShlzIyq49-26" value="+ provider(String id, String password, Vector&amp;lt;AirCleaner&amp;gt;)" style="text;strokeColor=none;fillColor=none;align=left;verticalAlign=top;spacingLeft=4;spacingRight=4;overflow=hidden;rotatable=0;points=[[0,0.5],[1,0.5]];portConstraint=eastwest;whiteSpace=wrap;html=1;" parent="gNZihffF2-oShlzIyq49-23" vertex="1">
          <mxGeometry y="58" width="200" height="42" as="geometry" />
        </mxCell>
        <mxCell id="gNZihffF2-oShlzIyq49-27" value="Coordinates" style="swimlane;fontStyle=1;align=center;verticalAlign=top;childLayout=stackLayout;horizontal=1;startSize=26;horizontalStack=0;resizeParent=1;resizeParentMax=0;resizeLast=0;collapsible=1;marginBottom=0;whiteSpace=wrap;html=1;fillColor=#d5e8d4;strokeColor=#82b366;" parent="1" vertex="1">
          <mxGeometry x="929" y="600" width="220" height="120" as="geometry" />
        </mxCell>
        <mxCell id="gNZihffF2-oShlzIyq49-28" value="- longitude: double&lt;br&gt;- latitude: double" style="text;strokeColor=none;fillColor=none;align=left;verticalAlign=top;spacingLeft=4;spacingRight=4;overflow=hidden;rotatable=0;points=[[0,0.5],[1,0.5]];portConstraint=eastwest;whiteSpace=wrap;html=1;" parent="gNZihffF2-oShlzIyq49-27" vertex="1">
          <mxGeometry y="26" width="220" height="34" as="geometry" />
        </mxCell>
        <mxCell id="gNZihffF2-oShlzIyq49-29" value="" style="line;strokeWidth=1;fillColor=none;align=left;verticalAlign=middle;spacingTop=-1;spacingLeft=3;spacingRight=3;rotatable=0;labelPosition=right;points=[];portConstraint=eastwest;strokeColor=inherit;" parent="gNZihffF2-oShlzIyq49-27" vertex="1">
          <mxGeometry y="60" width="220" height="8" as="geometry" />
        </mxCell>
        <mxCell id="gNZihffF2-oShlzIyq49-30" value="+ coordinates(double long, double lat)&lt;br&gt;+ getLongitude(): double&lt;br&gt;+ getLatitude(): double" style="text;strokeColor=none;fillColor=none;align=left;verticalAlign=top;spacingLeft=4;spacingRight=4;overflow=hidden;rotatable=0;points=[[0,0.5],[1,0.5]];portConstraint=eastwest;whiteSpace=wrap;html=1;" parent="gNZihffF2-oShlzIyq49-27" vertex="1">
          <mxGeometry y="68" width="220" height="52" as="geometry" />
        </mxCell>
        <mxCell id="gNZihffF2-oShlzIyq49-31" value="IHM" style="swimlane;fontStyle=1;align=center;verticalAlign=top;childLayout=stackLayout;horizontal=1;startSize=26;horizontalStack=0;resizeParent=1;resizeParentMax=0;resizeLast=0;collapsible=1;marginBottom=0;whiteSpace=wrap;html=1;fillColor=#d5e8d4;strokeColor=#82b366;" parent="1" vertex="1">
          <mxGeometry x="49" y="600" width="90" height="60" as="geometry" />
        </mxCell>
        <mxCell id="gNZihffF2-oShlzIyq49-32" value="" style="line;strokeWidth=1;fillColor=none;align=left;verticalAlign=middle;spacingTop=-1;spacingLeft=3;spacingRight=3;rotatable=0;labelPosition=right;points=[];portConstraint=eastwest;strokeColor=inherit;" parent="gNZihffF2-oShlzIyq49-31" vertex="1">
          <mxGeometry y="26" width="90" height="8" as="geometry" />
        </mxCell>
        <mxCell id="gNZihffF2-oShlzIyq49-33" value="+ main()" style="text;strokeColor=none;fillColor=none;align=left;verticalAlign=top;spacingLeft=4;spacingRight=4;overflow=hidden;rotatable=0;points=[[0,0.5],[1,0.5]];portConstraint=eastwest;whiteSpace=wrap;html=1;" parent="gNZihffF2-oShlzIyq49-31" vertex="1">
          <mxGeometry y="34" width="90" height="26" as="geometry" />
        </mxCell>
        <mxCell id="gNZihffF2-oShlzIyq49-34" value="Sensor" style="swimlane;fontStyle=1;align=center;verticalAlign=top;childLayout=stackLayout;horizontal=1;startSize=26;horizontalStack=0;resizeParent=1;resizeParentMax=0;resizeLast=0;collapsible=1;marginBottom=0;whiteSpace=wrap;html=1;fillColor=#d5e8d4;strokeColor=#82b366;" parent="1" vertex="1">
          <mxGeometry x="169" y="600" width="160" height="170" as="geometry" />
        </mxCell>
        <mxCell id="gNZihffF2-oShlzIyq49-35" value="# id: String&lt;br&gt;# coord: Coordinates&lt;br&gt;# reliable: boolean" style="text;strokeColor=none;fillColor=none;align=left;verticalAlign=top;spacingLeft=4;spacingRight=4;overflow=hidden;rotatable=0;points=[[0,0.5],[1,0.5]];portConstraint=eastwest;whiteSpace=wrap;html=1;" parent="gNZihffF2-oShlzIyq49-34" vertex="1">
          <mxGeometry y="26" width="160" height="54" as="geometry" />
        </mxCell>
        <mxCell id="gNZihffF2-oShlzIyq49-36" value="" style="line;strokeWidth=1;fillColor=none;align=left;verticalAlign=middle;spacingTop=-1;spacingLeft=3;spacingRight=3;rotatable=0;labelPosition=right;points=[];portConstraint=eastwest;strokeColor=inherit;" parent="gNZihffF2-oShlzIyq49-34" vertex="1">
          <mxGeometry y="80" width="160" height="8" as="geometry" />
        </mxCell>
        <mxCell id="gNZihffF2-oShlzIyq49-37" value="+ sensor(String id, Coordinates coord)&lt;br&gt;+ getId(): String&lt;br&gt;+ getCoord(): Coordinates&lt;br&gt;+ setReliable(boolean rel)" style="text;strokeColor=none;fillColor=none;align=left;verticalAlign=top;spacingLeft=4;spacingRight=4;overflow=hidden;rotatable=0;points=[[0,0.5],[1,0.5]];portConstraint=eastwest;whiteSpace=wrap;html=1;" parent="gNZihffF2-oShlzIyq49-34" vertex="1">
          <mxGeometry y="88" width="160" height="82" as="geometry" />
        </mxCell>
        <mxCell id="gNZihffF2-oShlzIyq49-38" value="AirCleaner" style="swimlane;fontStyle=1;align=center;verticalAlign=top;childLayout=stackLayout;horizontal=1;startSize=26;horizontalStack=0;resizeParent=1;resizeParentMax=0;resizeLast=0;collapsible=1;marginBottom=0;whiteSpace=wrap;html=1;fillColor=#d5e8d4;strokeColor=#82b366;" parent="1" vertex="1">
          <mxGeometry x="359" y="600" width="160" height="210" as="geometry" />
        </mxCell>
        <mxCell id="gNZihffF2-oShlzIyq49-39" value="# id: String&lt;br&gt;# coord: Coordinates&lt;br&gt;# DateStart: Date&lt;br&gt;# DateStop: Date" style="text;strokeColor=none;fillColor=none;align=left;verticalAlign=top;spacingLeft=4;spacingRight=4;overflow=hidden;rotatable=0;points=[[0,0.5],[1,0.5]];portConstraint=eastwest;whiteSpace=wrap;html=1;" parent="gNZihffF2-oShlzIyq49-38" vertex="1">
          <mxGeometry y="26" width="160" height="64" as="geometry" />
        </mxCell>
        <mxCell id="gNZihffF2-oShlzIyq49-40" value="" style="line;strokeWidth=1;fillColor=none;align=left;verticalAlign=middle;spacingTop=-1;spacingLeft=3;spacingRight=3;rotatable=0;labelPosition=right;points=[];portConstraint=eastwest;strokeColor=inherit;" parent="gNZihffF2-oShlzIyq49-38" vertex="1">
          <mxGeometry y="90" width="160" height="8" as="geometry" />
        </mxCell>
        <mxCell id="gNZihffF2-oShlzIyq49-41" value="+ airCleaner(String id, Coordinates coord, Date start, Date stop)&lt;br&gt;+ getId(): String&lt;br&gt;+ getCoord(): Coordinates&lt;br&gt;+ getDateStart(): Date&lt;br&gt;+ getDateStop(): Date" style="text;strokeColor=none;fillColor=none;align=left;verticalAlign=top;spacingLeft=4;spacingRight=4;overflow=hidden;rotatable=0;points=[[0,0.5],[1,0.5]];portConstraint=eastwest;whiteSpace=wrap;html=1;" parent="gNZihffF2-oShlzIyq49-38" vertex="1">
          <mxGeometry y="98" width="160" height="112" as="geometry" />
        </mxCell>
        <mxCell id="gNZihffF2-oShlzIyq49-42" value="Measure" style="swimlane;fontStyle=1;align=center;verticalAlign=top;childLayout=stackLayout;horizontal=1;startSize=26;horizontalStack=0;resizeParent=1;resizeParentMax=0;resizeLast=0;collapsible=1;marginBottom=0;whiteSpace=wrap;html=1;fillColor=#d5e8d4;strokeColor=#82b366;" parent="1" vertex="1">
          <mxGeometry x="549" y="600" width="160" height="210" as="geometry" />
        </mxCell>
        <mxCell id="gNZihffF2-oShlzIyq49-43" value="# sensorId: String&lt;br&gt;# dateMeas: Date&lt;br&gt;# attributeType: String&lt;br&gt;# value: double" style="text;strokeColor=none;fillColor=none;align=left;verticalAlign=top;spacingLeft=4;spacingRight=4;overflow=hidden;rotatable=0;points=[[0,0.5],[1,0.5]];portConstraint=eastwest;whiteSpace=wrap;html=1;" parent="gNZihffF2-oShlzIyq49-42" vertex="1">
          <mxGeometry y="26" width="160" height="64" as="geometry" />
        </mxCell>
        <mxCell id="gNZihffF2-oShlzIyq49-44" value="" style="line;strokeWidth=1;fillColor=none;align=left;verticalAlign=middle;spacingTop=-1;spacingLeft=3;spacingRight=3;rotatable=0;labelPosition=right;points=[];portConstraint=eastwest;strokeColor=inherit;" parent="gNZihffF2-oShlzIyq49-42" vertex="1">
          <mxGeometry y="90" width="160" height="8" as="geometry" />
        </mxCell>
        <mxCell id="gNZihffF2-oShlzIyq49-45" value="+ measure(String sensorId, Date date, String attId, double val)&lt;br&gt;+ &amp;nbsp;getSensorId(): String&lt;br&gt;+ getDateMeas(): Date&lt;br&gt;+ getAttributeId(): String&lt;br&gt;+ getValue(): double" style="text;strokeColor=none;fillColor=none;align=left;verticalAlign=top;spacingLeft=4;spacingRight=4;overflow=hidden;rotatable=0;points=[[0,0.5],[1,0.5]];portConstraint=eastwest;whiteSpace=wrap;html=1;" parent="gNZihffF2-oShlzIyq49-42" vertex="1">
          <mxGeometry y="98" width="160" height="112" as="geometry" />
        </mxCell>
        <mxCell id="gNZihffF2-oShlzIyq49-46" value="Attribute" style="swimlane;fontStyle=1;align=center;verticalAlign=top;childLayout=stackLayout;horizontal=1;startSize=26;horizontalStack=0;resizeParent=1;resizeParentMax=0;resizeLast=0;collapsible=1;marginBottom=0;whiteSpace=wrap;html=1;fillColor=#d5e8d4;strokeColor=#82b366;" parent="1" vertex="1">
          <mxGeometry x="739" y="600" width="160" height="170" as="geometry" />
        </mxCell>
        <mxCell id="gNZihffF2-oShlzIyq49-47" value="# type: String&lt;br&gt;# unit: String&lt;br&gt;# description: String" style="text;strokeColor=none;fillColor=none;align=left;verticalAlign=top;spacingLeft=4;spacingRight=4;overflow=hidden;rotatable=0;points=[[0,0.5],[1,0.5]];portConstraint=eastwest;whiteSpace=wrap;html=1;" parent="gNZihffF2-oShlzIyq49-46" vertex="1">
          <mxGeometry y="26" width="160" height="54" as="geometry" />
        </mxCell>
        <mxCell id="gNZihffF2-oShlzIyq49-48" value="" style="line;strokeWidth=1;fillColor=none;align=left;verticalAlign=middle;spacingTop=-1;spacingLeft=3;spacingRight=3;rotatable=0;labelPosition=right;points=[];portConstraint=eastwest;strokeColor=inherit;" parent="gNZihffF2-oShlzIyq49-46" vertex="1">
          <mxGeometry y="80" width="160" height="8" as="geometry" />
        </mxCell>
        <mxCell id="gNZihffF2-oShlzIyq49-49" value="+ attribute(String id, String unit, String desc)&lt;br&gt;+ getId(): String&lt;br&gt;+ getUnit(): String&lt;br&gt;+ getDescription(): String" style="text;strokeColor=none;fillColor=none;align=left;verticalAlign=top;spacingLeft=4;spacingRight=4;overflow=hidden;rotatable=0;points=[[0,0.5],[1,0.5]];portConstraint=eastwest;whiteSpace=wrap;html=1;" parent="gNZihffF2-oShlzIyq49-46" vertex="1">
          <mxGeometry y="88" width="160" height="82" as="geometry" />
        </mxCell>
        <mxCell id="gNZihffF2-oShlzIyq49-50" value="DataManager" style="swimlane;fontStyle=1;align=center;verticalAlign=top;childLayout=stackLayout;horizontal=1;startSize=26;horizontalStack=0;resizeParent=1;resizeParentMax=0;resizeLast=0;collapsible=1;marginBottom=0;whiteSpace=wrap;html=1;fillColor=#d5e8d4;strokeColor=#82b366;" parent="1" vertex="1">
          <mxGeometry x="785" y="60" width="370" height="360" as="geometry" />
        </mxCell>
        <mxCell id="gNZihffF2-oShlzIyq49-51" value="" style="line;strokeWidth=1;fillColor=none;align=left;verticalAlign=middle;spacingTop=-1;spacingLeft=3;spacingRight=3;rotatable=0;labelPosition=right;points=[];portConstraint=eastwest;strokeColor=inherit;" parent="gNZihffF2-oShlzIyq49-50" vertex="1">
          <mxGeometry y="26" width="370" height="8" as="geometry" />
        </mxCell>
        <mxCell id="gNZihffF2-oShlzIyq49-52" value="+ DataManager()&lt;br&gt;+ createPrivIndiv(PrivIndiv privateIndiv): PrivIndiv&lt;br&gt;+ createAdmin(Admin anAdmin): Admin&lt;br&gt;+ createMemberGov(MemberGov aMemberGov): MemberGov&lt;br&gt;+ createProvider(Provider a Provider): Provider&lt;br style=&quot;border-color: var(--border-color);&quot;&gt;+ getPrivIndList(): Vector&amp;lt;PrivIndiv&amp;gt;&lt;br&gt;+ getSensor(String sensorId): Sensor&lt;br style=&quot;border-color: var(--border-color);&quot;&gt;+ getSensorsList(): Vector&amp;lt;Sensor&amp;gt;&lt;br&gt;+ getSensorsAround(Coordinates coord, double radius): Vector&amp;lt;Sensor&amp;gt;&lt;br&gt;+ getSensorData(String sensorId): Vector&amp;lt;Measure&amp;gt;&lt;br&gt;+ getUser(String id, String password): User&lt;br&gt;+ authentificateUser(String id, String password): User&lt;br&gt;+ updatePrivIndiv(String id)&lt;br&gt;+ getPrivIndivSensors(String id): Vector&amp;lt;Sensor&amp;gt;&lt;br&gt;+ getPrivIndivPoints(String id): int&lt;br&gt;+ updateProvider(String id)&lt;br&gt;+ createAirCleaner(AirCleaner ac): AirCleaner&lt;br&gt;+ getMeasuresAtMoment(Vector&amp;lt;Sensor&amp;gt; listSensors, Date date): Vector&amp;lt;Measure&amp;gt;&lt;br&gt;+ getMeasuresAtPeriod(Vector&amp;lt;Sensor&amp;gt; listSensors,&amp;nbsp;Date date1, Date date2): Vector&amp;lt;Measure&amp;gt;" style="text;strokeColor=none;fillColor=none;align=left;verticalAlign=top;spacingLeft=4;spacingRight=4;overflow=hidden;rotatable=0;points=[[0,0.5],[1,0.5]];portConstraint=eastwest;whiteSpace=wrap;html=1;" parent="gNZihffF2-oShlzIyq49-50" vertex="1">
          <mxGeometry y="34" width="370" height="326" as="geometry" />
        </mxCell>
      </root>
    </mxGraphModel>
  </diagram>
</mxfile>
